<?xml version="1.0" encoding="UTF-8" standalone="no"?>
<svg
   xmlns:dc="http://purl.org/dc/elements/1.1/"
   xmlns:cc="http://creativecommons.org/ns#"
   xmlns:rdf="http://www.w3.org/1999/02/22-rdf-syntax-ns#"
   xmlns:svg="http://www.w3.org/2000/svg"
   xmlns="http://www.w3.org/2000/svg"
   xmlns:sodipodi="http://sodipodi.sourceforge.net/DTD/sodipodi-0.dtd"
   xmlns:inkscape="http://www.inkscape.org/namespaces/inkscape"
   version="1.1"
   id="svg2"
   xml:space="preserve"
   width="108.71999"
   height="51.48933"
   viewBox="0 0 108.71999 51.48933"
   sodipodi:docname="Big East Conference logo stacked.svg"
   inkscape:version="1.0.2 (e86c870879, 2021-01-15)"><metadata
     id="metadata8"><rdf:RDF><cc:Work
         rdf:about=""><dc:format>image/svg+xml</dc:format><dc:type
           rdf:resource="http://purl.org/dc/dcmitype/StillImage" /><dc:title></dc:title></cc:Work></rdf:RDF></metadata><defs
     id="defs6"><clipPath
       clipPathUnits="userSpaceOnUse"
       id="clipPath20"><path
         d="M 0,576 H 792 V 0 H 0 Z"
         id="path18" /></clipPath><clipPath
       clipPathUnits="userSpaceOnUse"
       id="clipPath120"><path
         d="m 235.862,222.553 h 122.9 v 24.334 h -122.9 z"
         id="path118" /></clipPath><clipPath
       clipPathUnits="userSpaceOnUse"
       id="clipPath208"><path
         d="m 235.862,298.504 h 122.9 v 24.333 h -122.9 z"
         id="path206" /></clipPath><clipPath
       clipPathUnits="userSpaceOnUse"
       id="clipPath296"><path
         d="m 235.862,147.603 h 122.9 v 24.334 h -122.9 z"
         id="path294" /></clipPath><clipPath
       clipPathUnits="userSpaceOnUse"
       id="clipPath384"><path
         d="m 235.862,73.652 h 122.9 v 24.334 h -122.9 z"
         id="path382" /></clipPath><clipPath
       clipPathUnits="userSpaceOnUse"
       id="clipPath472"><path
         d="m 235.862,375.351 h 122.9 v 24.334 h -122.9 z"
         id="path470" /></clipPath><clipPath
       clipPathUnits="userSpaceOnUse"
       id="clipPath560"><path
         d="m 235.862,447.924 h 122.9 v 24.334 h -122.9 z"
         id="path558" /></clipPath><clipPath
       clipPathUnits="userSpaceOnUse"
       id="clipPath648"><path
         d="m 457.416,136.007 h 81.54 v 50.338 h -81.54 z"
         id="path646" /></clipPath><clipPath
       clipPathUnits="userSpaceOnUse"
       id="clipPath728"><path
         d="m 457.416,61.057 h 81.54 v 50.337 h -81.54 z"
         id="path726" /></clipPath><clipPath
       clipPathUnits="userSpaceOnUse"
       id="clipPath808"><path
         d="m 457.416,209.957 h 81.54 v 50.338 h -81.54 z"
         id="path806" /></clipPath><clipPath
       clipPathUnits="userSpaceOnUse"
       id="clipPath888"><path
         d="m 457.416,286.015 h 81.54 v 50.338 h -81.54 z"
         id="path886" /></clipPath><clipPath
       clipPathUnits="userSpaceOnUse"
       id="clipPath968"><path
         d="m 457.416,361.756 h 81.54 v 50.338 h -81.54 z"
         id="path966" /></clipPath><clipPath
       clipPathUnits="userSpaceOnUse"
       id="clipPath1048"><path
         d="m 457.416,436.328 h 81.54 v 50.338 h -81.54 z"
         id="path1046" /></clipPath></defs><sodipodi:namedview
     pagecolor="#ffffff"
     bordercolor="#666666"
     borderopacity="1"
     objecttolerance="10"
     gridtolerance="10"
     guidetolerance="10"
     inkscape:pageopacity="0"
     inkscape:pageshadow="2"
     inkscape:window-width="1920"
     inkscape:window-height="1136"
     id="namedview4"
     showgrid="false"
     inkscape:zoom="4.5473966"
     inkscape:cx="37.561645"
     inkscape:cy="72.471773"
     inkscape:window-x="0"
     inkscape:window-y="27"
     inkscape:window-maximized="1"
     inkscape:current-layer="g10" /><g
     id="g10"
     inkscape:groupmode="layer"
     inkscape:label="BIG_EAST_Brand_Identity"
     transform="matrix(1.3333333,0,0,-1.3333333,-609.88798,641.07398)"><g
       id="g1042"><g
         id="g1044"
         clip-path="url(#clipPath1048)"><g
           id="g1050"
           transform="translate(482.5134,442.8461)"><path
             d="m 0,0 c -0.681,-0.396 -1.402,-0.58 -2.022,-0.58 -1.083,0 -1.857,0.632 -1.21,1.679 0.543,0.88 1.885,1.511 3.035,1.511 0.61,0 1.139,-0.179 1.349,-0.621 L 1.24,1.804 0.189,1.375 0.155,1.477 c -0.061,0.184 -0.282,0.328 -0.702,0.328 -0.667,0 -1.486,-0.411 -1.771,-0.873 -0.188,-0.305 -0.076,-0.706 0.646,-0.706 0.411,0 0.862,0.138 1.229,0.363 l 0.037,0.022 0.652,-0.465 z"
             style="fill:#173a79;fill-opacity:1;fill-rule:evenodd;stroke:none"
             id="path1052" /></g><g
           id="g1054"
           transform="translate(488.5466,443.778)"><path
             d="m 0,0 c -0.544,-0.88 -1.886,-1.512 -3.035,-1.512 -1.083,0 -1.858,0.633 -1.211,1.679 0.543,0.88 1.886,1.511 3.036,1.511 C -0.128,1.678 0.647,1.046 0,0 m -0.915,0.167 c 0.188,0.303 0.076,0.706 -0.646,0.706 -0.666,0 -1.486,-0.411 -1.771,-0.873 -0.187,-0.304 -0.076,-0.706 0.648,-0.706 0.666,0 1.484,0.41 1.769,0.873"
             style="fill:#173a79;fill-opacity:1;fill-rule:evenodd;stroke:none"
             id="path1056" /></g><g
           id="g1058"
           transform="translate(490.0756,442.3235)"><path
             d="M 0,0 H -0.982 L 1.003,3.211 2.368,1.467 3.364,3.076 H 4.346 L 2.359,-0.135 0.995,1.609 Z"
             style="fill:#173a79;fill-opacity:1;fill-rule:evenodd;stroke:none"
             id="path1060" /></g><g
           id="g1062"
           transform="translate(499.8252,445.399)"><path
             d="m 0,0 -0.497,-0.806 h -2.21 l -0.182,-0.296 h 1.538 L -1.848,-1.904 H -3.387 L -4.11,-3.076 H -5.092 L -3.192,0 Z"
             style="fill:#173a79;fill-opacity:1;fill-rule:evenodd;stroke:none"
             id="path1064" /></g><g
           id="g1066"
           transform="translate(505.2296,445.399)"><path
             d="M 0,0 -0.498,-0.806 H -2.707 L -2.89,-1.102 h 1.54 L -1.848,-1.904 H -3.387 L -3.612,-2.27 h 2.209 l -0.5,-0.806 h -3.19 L -3.191,0 Z"
             style="fill:#173a79;fill-opacity:1;fill-rule:evenodd;stroke:none"
             id="path1068" /></g><g
           id="g1070"
           transform="translate(509.3129,445.399)"><path
             d="M 0,0 C 0.798,0 1.325,-0.411 0.845,-1.188 0.589,-1.602 0.065,-1.903 -0.458,-2.045 L -0.1,-3.076 h -1.178 l -0.254,0.868 H -2.255 L -2.791,-3.076 H -3.772 L -1.871,0 Z m -0.922,-1.404 c 0.48,0 0.782,0.21 0.889,0.384 0.036,0.058 0.035,0.088 0.017,0.114 -0.033,0.048 -0.135,0.1 -0.389,0.1 h -0.982 l -0.37,-0.598 z"
             style="fill:#173a79;fill-opacity:1;fill-rule:evenodd;stroke:none"
             id="path1072" /></g><g
           id="g1074"
           transform="translate(515.745,445.399)"><path
             d="M 0,0 -0.498,-0.806 H -2.706 L -2.89,-1.102 h 1.54 L -1.849,-1.904 H -3.386 L -3.613,-2.27 h 2.209 L -1.902,-3.076 H -5.093 L -3.191,0 Z"
             style="fill:#173a79;fill-opacity:1;fill-rule:evenodd;stroke:none"
             id="path1076" /></g><g
           id="g1078"
           transform="translate(517.0371,442.3235)"><path
             d="M 0,0 H -0.981 L 1.003,3.211 2.369,1.467 3.365,3.076 H 4.346 L 2.362,-0.135 0.994,1.609 Z"
             style="fill:#173a79;fill-opacity:1;fill-rule:evenodd;stroke:none"
             id="path1080" /></g><g
           id="g1082"
           transform="translate(525.1635,442.8461)"><path
             d="m 0,0 c -0.681,-0.396 -1.401,-0.58 -2.022,-0.58 -1.085,0 -1.858,0.632 -1.21,1.679 0.544,0.88 1.886,1.511 3.036,1.511 0.609,0 1.138,-0.179 1.35,-0.621 L 1.241,1.804 0.189,1.375 0.154,1.477 c -0.06,0.184 -0.281,0.328 -0.702,0.328 -0.665,0 -1.482,-0.411 -1.769,-0.873 -0.189,-0.305 -0.076,-0.706 0.646,-0.706 0.41,0 0.86,0.138 1.228,0.363 l 0.039,0.022 0.651,-0.465 z"
             style="fill:#173a79;fill-opacity:1;fill-rule:evenodd;stroke:none"
             id="path1084" /></g><g
           id="g1086"
           transform="translate(531.8093,445.399)"><path
             d="m 0,0 -0.497,-0.806 h -2.21 L -2.889,-1.102 H -1.35 L -1.849,-1.904 H -3.387 L -3.613,-2.27 h 2.209 L -1.902,-3.076 H -5.093 L -3.19,0 Z"
             style="fill:#173a79;fill-opacity:1;fill-rule:evenodd;stroke:none"
             id="path1088" /></g><g
           id="g1090"
           transform="translate(487.9763,471.3195)"><path
             d="M 0,0 0.718,1.129 C 0.491,1.161 -7.736,1.17 -7.736,1.17 L -8.058,0.669 -8.859,-0.775 h 7.009 c 1.129,0 1.461,0.169 1.85,0.775 M 3.866,6.171 C 3.654,6.181 -4.965,6.234 -4.965,6.234 L -5.973,4.421 1.493,4.441 C 2.561,4.441 2.869,4.617 3.115,5 Z M 6.17,9.442 c 2.336,0 3.822,-0.822 2.234,-3.299 L 7.428,4.62 C 6.83,3.688 5.944,3.029 4.895,2.628 5.389,2.024 5.312,1.135 4.667,0.128 L 3.646,-1.466 C 2.367,-3.461 0.058,-4.241 -2.96,-4.241 H -15.965 L -8.04,9.486 Z M 28.396,0.881 23.227,3.836 34.848,3.877 32.085,-0.959 c -1.479,-2.602 -2.98,-3.282 -5.988,-3.282 H 15.615 c -2.997,0 -4.224,0.84 -2.524,3.831 l 3.732,6.57 c 1.479,2.603 2.978,3.282 5.988,3.282 H 37.479 C 37.542,9.378 35.629,6.065 35.629,6.065 35.573,5.968 21.553,6 21.553,6 l -3.794,-6.68 h 9.753 z M 4.033,-4.241 11.806,9.442 h 4.823 L 8.853,-4.241 Z"
             style="fill:#ed1738;fill-opacity:1;fill-rule:evenodd;stroke:none"
             id="path1092" /></g><g
           id="g1094"
           transform="translate(501.2863,452.6847)"><path
             d="m 0,0 -4.796,0.014 -0.221,2.207 h -7.547 L -15.24,0.143 -21.493,0.089 -5.804,12.634 h 3.759 z M -5.324,5.018 -5.557,7.663 -8.941,5.056 Z"
             style="fill:#173a79;fill-opacity:1;fill-rule:nonzero;stroke:none"
             id="path1096" /></g><g
           id="g1098"
           transform="translate(479.4271,452.8177)"><path
             d="M 0,0 -15.718,-0.165 -7.785,12.5 6.735,12.459 4.704,9.323 -4.939,9.404 -5.843,7.961 H 1.113 L -0.827,4.867 H -7.782 L -8.867,3.132 2.254,3.136 Z"
             style="fill:#173a79;fill-opacity:1;fill-rule:nonzero;stroke:none"
             id="path1100" /></g><g
           id="g1102"
           transform="translate(524.9692,465.0511)"><path
             d="M 0,0 13.987,0.057 11.853,-2.814 H 7.71 l -6.197,-9.584 h -4.785 l 6.221,9.584 -4.529,0.038 z"
             style="fill:#173a79;fill-opacity:1;fill-rule:nonzero;stroke:none"
             id="path1104" /></g><g
           id="g1106"
           transform="translate(510.0842,462.2346)"><path
             d="m 0,0 -0.936,-1.487 h 8.481 c 2.961,0 4.239,-0.768 2.574,-3.546 L 8.86,-7.179 C 7.414,-9.59 6.209,-9.658 3.227,-9.658 l -11.826,0.137 1.482,3.021 11.815,-0.112 1.153,1.759 h -8.482 c -2.976,0 -4.201,0.779 -2.544,3.546 l 0.901,1.534 c 1.442,2.409 2.789,2.78 5.775,2.78 L 13.071,2.894 11.567,0.077 Z"
             style="fill:#173a79;fill-opacity:1;fill-rule:nonzero;stroke:none"
             id="path1108" /></g><g
           id="g1110"
           transform="translate(461.157,448.1517)"><path
             d="M 0,0 C 12.773,3.821 47.831,4.763 71.702,-0.771 43.22,1.983 17.741,1.623 -2.526,-4.092 -2.933,-4.207 -3.338,-4.324 -3.741,-4.443 Z"
             style="fill:#ed1738;fill-opacity:1;fill-rule:evenodd;stroke:none"
             id="path1112" /></g><g
           id="g1114"
           transform="translate(529.5154,452.973)"><path
             d="M 0,0 0.942,0.908 H 1.278 L 0.469,-0.327 H 0.251 L 0.908,0.677 H 0.902 l -1.043,-1.004 h -0.151 l 0.271,1.004 h -0.005 l -0.658,-1.004 h -0.219 l 0.809,1.235 h 0.335 z m -0.428,0.728 h -0.379 l -0.691,-1.055 h -0.219 l 0.691,1.055 h -0.381 l 0.119,0.18 h 0.979 z"
             style="fill:#173a79;fill-opacity:1;fill-rule:nonzero;stroke:none"
             id="path1116" /></g></g></g></g></svg>
