<?xml version="1.0" encoding="UTF-8" standalone="no"?>
<!-- Created with Inkscape (http://www.inkscape.org/) -->

<svg
   width="985.61151"
   height="985.61151"
   viewBox="0 0 985.61151 985.61151"
   version="1.1"
   id="svg1"
   xml:space="preserve"
   inkscape:export-filename="Southeastern Conference logo (2024).svg"
   inkscape:export-xdpi="96"
   inkscape:export-ydpi="96"
   xmlns:inkscape="http://www.inkscape.org/namespaces/inkscape"
   xmlns:sodipodi="http://sodipodi.sourceforge.net/DTD/sodipodi-0.dtd"
   xmlns="http://www.w3.org/2000/svg"
   xmlns:svg="http://www.w3.org/2000/svg"><sodipodi:namedview
     id="namedview1"
     pagecolor="#ffffff"
     bordercolor="#000000"
     borderopacity="0.25"
     inkscape:showpageshadow="2"
     inkscape:pageopacity="0.0"
     inkscape:pagecheckerboard="0"
     inkscape:deskcolor="#d1d1d1"
     inkscape:document-units="px"
     showguides="false"><sodipodi:guide
       position="600.38116,971.19668"
       orientation="1,0"
       id="guide2"
       inkscape:locked="false" /><sodipodi:guide
       position="403.42422,978.10036"
       orientation="1,0"
       id="guide3"
       inkscape:locked="false" /><sodipodi:guide
       position="741.56556,413.69191"
       orientation="1,0"
       id="guide4"
       inkscape:locked="false" /><sodipodi:guide
       position="647.08766,954.45044"
       orientation="1,0"
       id="guide5"
       inkscape:locked="false" /><sodipodi:guide
       position="358.22437,760.51546"
       orientation="1,0"
       id="guide6"
       inkscape:locked="false" /><sodipodi:guide
       position="261.13812,393.66808"
       orientation="1,0"
       id="guide7"
       inkscape:locked="false" /><sodipodi:guide
       position="286.8027,803.12074"
       orientation="1,0"
       id="guide8"
       inkscape:locked="false" /><sodipodi:guide
       position="261.13812,500.84246"
       orientation="-0.74758246,-0.664169"
       id="guide9"
       inkscape:locked="false" /><sodipodi:guide
       position="358.22437,548.13823"
       orientation="-0.7315712,-0.68176505"
       id="guide10"
       inkscape:label=""
       inkscape:locked="false"
       inkscape:color="rgb(0,134,229)" /><sodipodi:guide
       position="110.79246,435.65308"
       orientation="-0.56042425,0.82820568"
       id="guide11"
       inkscape:locked="false" /></sodipodi:namedview><defs
     id="defs1"><style
       id="style1">.e{fill:#fff;}.f{fill:#1d366c;stroke:#fdd540;stroke-miterlimit:10;stroke-width:5px;}</style></defs><g
     inkscape:label="Layer 1"
     inkscape:groupmode="layer"
     id="layer1"
     transform="translate(-467.19424,-47.469902)"><g
       id="g2"
       transform="matrix(1.6156265,0,0,1.6156265,466.63613,46.911786)"
       inkscape:label="g2"><circle
         class="f"
         cx="305.37"
         cy="305.37"
         r="295.8028"
         id="circle1"
         style="opacity:1;stroke-width:18.4435;stroke-dasharray:none"
         inkscape:label="circle1" /><g
         id="g1"
         style="display:inline;opacity:1"
         transform="matrix(0.95894687,0,0,0.96613203,9.2797436,9.1540895)"><path
           id="c"
           class="e"
           d="m 310.38,45.07261 c -19,0 -41.44549,2.03 -59.30549,5.85 V 562.37 c 17.86,3.83 40.29549,5.85 59.30549,5.85 22.99,0 46.57091,-4.26131 67.82091,-9.79131 v -81.2813 c -19.1,6.99 -28.77182,11.01 -50.13182,11.64 V 354.64869 H 369.47 v -95.53 h -41.40091 v -115.68 c 21.35,0.6 31.04182,7.21262 50.13182,14.20262 l 10e-6,-103.084187 C 356.94092,49.017123 333.38,45.07261 310.38,45.07261"
           sodipodi:nodetypes="cccsccccccccccc"
           style="opacity:1" /><path
           style="opacity:1;fill:#ffffff;fill-opacity:1;stroke-width:30;stroke-dasharray:none"
           d="m 1114.2819,164.40655 -5e-4,753.05912 c 0,0 73.0261,-25.65742 143.9411,-101.30796 65.8963,-70.29671 90.7144,-159.90313 90.7144,-159.90313 l -80.6778,-60.82082 c 0,0 -15.3303,57.63586 -23.5319,74.69814 -12.2002,25.38093 -36.1073,60.19346 -36.1073,60.19346 l 0.1399,-377.9364 c 0,0 26.1223,36.40059 37.1287,62.18484 11.3565,26.60433 22.4001,71.95844 22.4001,71.95844 l 80.6916,-61.63937 c 0,0 -27.0675,-110.60414 -125.9291,-193.95788 -59.1248,-49.8503 -108.7692,-66.52844 -108.7692,-66.52844 z"
           id="path6"
           sodipodi:nodetypes="ccsccsccsccsc"
           transform="matrix(0.6454528,0,0,0.64065254,-310.86861,-39.529143)" /><path
           style="opacity:1;fill:#ffffff;fill-opacity:1;stroke-width:18.5686;stroke-dasharray:none"
           d="m 222.07019,544.77098 c 0,0 -54.232,-19.76103 -88.70059,-52.17171 C 83.209098,445.43355 68.920983,399.16716 68.920983,399.16716 l 48.800047,-33.02167 c 0,0 8.61971,23.04956 18.04564,39.22858 9.03992,15.51646 26.2115,34.65968 26.2115,34.65968 V 358.81787 L 58.318663,242.13969 c 0,0 14.845577,-59.74779 55.240687,-103.48021 C 169.3913,78.214882 222.07019,66.920179 222.07019,66.920179 V 225.346 h -44.2068 v -59.12845 c 0,0 -15.70791,15.1076 -24.6827,27.35592 -10.78856,14.72367 -22.04832,38.3892 -22.04832,38.3892 l 90.93782,97.58125 z"
           id="path11"
           sodipodi:nodetypes="csccscccsccccsccc"
           transform="matrix(1.0428106,0,0,1.0350552,-9.6770154,-9.4749881)" /></g></g></g></svg>
